PathFileType	4	(X/Y/Z)	pose_F01_0-90.trc
DataRate	CameraRate	NumFrames	NumMarkers	Units	OrigDataRate	OrigDataStartFrame	OrigNumFrames
30	30	7	21	m	30	78	90
Frame#	Time	CHip			RHip			RKnee			RAnkle			RBigToe			RSmallToe			RHeel			LHip			LKnee			LAnkle			LBigToe			LSmallToe			LHeel			Neck			Nose			RShoulder			RElbow			RWrist			LShoulder			LElbow			LWrist			
		X1	Y1	Z1	X2	Y2	Z2	X3	Y3	Z3	X4	Y4	Z4	X5	Y5	Z5	X6	Y6	Z6	X7	Y7	Z7	X8	Y8	Z8	X9	Y9	Z9	X10	Y10	Z10	X11	Y11	Z11	X12	Y12	Z12	X13	Y13	Z13	X14	Y14	Z14	X15	Y15	Z15	X16	Y16	Z16	X17	Y17	Z17	X18	Y18	Z18	X19	Y19	Z19	X20	Y20	Z20	X21	Y21	Z21	
78	2.6	-0.21598689169818597	1.834585323035137	-0.6597405701859429	-0.23783491943365562	1.831667036316417	-0.5983931134435418	-0.2520224508781589	1.6972088175402884	-0.5454122672087363										-0.1912320646874766	1.594357637854458	-0.5298604523236514	-0.19794211921869578	1.8391107071444546	-0.7194968547791751	-0.18881654426963781	1.7009267982646334	-0.6844289724520083	-0.180849012165018	1.5776219748158222	-0.6759714687460182	-0.19123693107109835	1.5413593804561139	-0.7371553727023601	-0.17925049445948799	1.554679032968944	-0.7455738560357504	-0.1819940459558986	1.565362719855071	-0.6610769124016826	-0.21999695565221566	1.9880946258522625	-0.6450043246587404	-0.24097106577327607	2.0558490462407017	-0.6641327403564581	-1.5692870378672261	1.8814693053605296	0.8545446812051455	-0.2565537431860733	1.8899298768448258	-0.5248458199469515	-0.24430375615048103	1.923142595755564	-0.6468241983493123	-0.19103198285676	2.001572202912792	-0.7360658693149754	-1.0359844870092145	1.8379254622158285	0.05493116964227477	-1.1808025423045079	1.8378081759414358	0.20631429617505384
79	2.6333333333333333	-0.20867910274184934	1.8352316426392459	-0.6720297201288173	-0.2287193355343543	1.830249564922856	-0.6128407905156048	-0.24656532608222048	1.6963448756133779	-0.5554274983311476										-0.1912320646874766	1.594357637854458	-0.5298604523236514	-0.18843684626418902	1.8399800254651235	-0.7457410854555269	-0.18483171713351318	1.702387579189341	-0.7009445931022888	-0.18048384103128767	1.5753599665139972	-0.6766577592310544	-0.19116812827063354	1.5412995306784756	-0.7372805676475638	-0.176816770905924	1.553585131064353	-0.7481109787929311	-0.1823254650887931	1.564823793389302	-0.665204793916704	-0.21835732353515133	1.9873102495094053	-0.6589201283969592	-0.23223892209011057	2.0534487492680276	-0.6817002751953742	-0.24504301843885765	1.9775196058207973	-0.5684108842801789	-0.2504367430363229	1.890309133475134	-0.5317064907668749	-0.2346120027471357	1.9214213384064152	-0.6525367510960834	-0.1836424343081342	2.0014004735926605	-0.7510030278293898	-1.0087726435702449	1.840476008921888	0.013811655850430775	-1.1902012864004288	1.8435129761231177	0.22306173782447863
80	2.6666666666666665	-0.20298141538329706	1.8358687631884467	-0.6819814560200731	-0.22239154990593055	1.8313539058059922	-0.6197039111071396	-0.24147168177788922	1.6987897123841968	-0.5654239060919697										-0.1912320646874766	1.594357637854458	-0.5298604523236514	-0.18488868865116423	1.8385317758556268	-0.7533360987570283	-0.1846184227562737	1.7017263602495099	-0.7091984720482677	-0.180851752549087	1.5778907534036761	-0.676068798808918	-0.1911505055101127	1.5413058565289826	-0.7372367573385151	-0.1770168349873514	1.5548038285771475	-0.7477663169546842	-0.18199604093685984	1.5652538777154776	-0.6611177886452896	-0.2072194326643459	1.9874371669024147	-0.6787596242183845	-0.2296952856191576	2.0523436887560567	-0.6922705974053313	-0.2386162831146158	1.9772213773490999	-0.5835458712663111	-0.24117878408740664	1.8928759881812622	-0.5463349150137432	-0.23046796145228865	1.9222922704803462	-0.6573245949955466	-0.17687174251924326	1.9990599772620208	-0.768895886056457	-0.9863472339209816	1.8405594305355457	-0.02317130788379719	-1.1743188804679028	1.8428330241586046	0.20289840490185027
81	2.7	-0.19904535790052538	1.83388410283791	-0.6894530696621031	-0.21959197911098524	1.829678625601007	-0.622011008459722	-0.2392785931847834	1.6951407434416268	-0.5674431821825309										-0.1912320646874766	1.594357637854458	-0.5298604523236514	-0.18065785864225303	1.83742353801387	-0.7611208023318313	-0.18418728673828785	1.70188819322861	-0.7098613263389616	-0.1806375360313547	1.5767376110910543	-0.6764805361307503	-0.19142249651712445	1.5428296585577532	-0.7370118448088434	-0.17727894676225633	1.5534405934514501	-0.7472800936911486	-0.1827764119962335	1.5646948955719806	-0.6643536391242008	-0.20363637245735866	1.9859950465857041	-0.686036514572019	-0.22340459742465443	2.0509207233652433	-0.6992148982044463	-0.23245208139976115	1.9762250126110117	-0.5902622728658231	-0.23430235692264115	1.8920344302524124	-0.5499015148569333	-0.22825195734000905	1.9224815879217378	-0.6594245276912246	-0.1695448820942664	1.9946553953679707	-0.7840149305413918	-0.9732114772679338	1.838658057418881	-0.04116650832244423	-1.1785015380605022	1.8412542403325058	0.21134680234306785
82	2.7333333333333334	-0.19678182230177732	1.8340323659388165	-0.7002906045004488	-0.21653070998634863	1.8258199447815393	-0.6292814276218472	-0.23913371860076757	1.6959514344331448	-0.5763275326762008										-0.1912320646874766	1.594357637854458	-0.5298604523236514	-0.17644513869008968	1.8341885618136993	-0.7656410796577563	-0.1797599798285677	1.7018320099166973	-0.7143680803568953	-0.18061863295843086	1.5766613159379672	-0.6764220406578237	-0.1911726506917517	1.541359381252906	-0.7372338024510626	-0.17701234499902696	1.5548506496882673	-0.7478351361670356	-0.18374344054051603	1.5660094941439917	-0.6595858718426386	-0.19500047293093728	1.9868586417219127	-0.6956852937615581	-0.21765799208348288	2.051269034288867	-0.7088787482074245	-0.2261489674147799	1.9785474482444225	-0.5975181784263227	-0.22896590558629565	1.8923817363539046	-0.559959892192883	-0.22391504962704462	1.9275734494827048	-0.664535078005164	-0.16489517128397824	1.9949209702972222	-0.788926175590108	-0.9748595604188178	1.835968361564381	-0.03987220234726531	-1.1756339322241298	1.83400932312905	0.19483848634638762
83	2.7666666666666666	-0.19523703011228052	1.8330411551685857	-0.7057167284956495	-0.21433396098912227	1.8261075640128437	-0.6316780577092915	-0.23576974011996849	1.6957531158362875	-0.5819013292625896										-0.1912320646874766	1.594357637854458	-0.5298604523236514	-0.17187561982723584	1.834058825032525	-0.770181098519174	-0.18097969150767984	1.698715629850344	-0.716630067609251	-0.18096055954949894	1.5754236736868676	-0.6758578471450349	-0.1911988145989806	1.5413433493065385	-0.7372708314238778	-0.17732809184440643	1.553406094423603	-0.7472604599225746	-0.18276338169280723	1.5645326431877573	-0.6642362795377255	-0.19133870864617805	1.987869494088282	-0.7031630402840057	-0.21333387648348862	2.0503103995311163	-0.7136119620356718	-0.22193018556748986	1.978686635342974	-0.6020771630516026	-0.22678059820403015	1.895311084394466	-0.5625334248325231	-0.22315080727546618	1.9281758531960012	-0.6616805456115747	-0.16046480928930074	1.9931160832817398	-0.7937692070990034	-0.971667457085663	1.8310638264918104	-0.0482447753511321	-1.1701780576356322	1.832254225799407	0.18878360835399965
84	2.8	-0.1965999978809865	1.8291623093140963	-0.7084459932288267	-0.21162131328882502	1.8265466363059593	-0.63897676470497	-0.2324057616391694	1.6955547972394305	-0.5874751258489784										-0.1912320646874766	1.594357637854458	-0.5298604523236514	-0.17303298204065284	1.8322634166074248	-0.7729099338032351	-0.17789441132103787	1.698624669280329	-0.7159360724598893	-0.18043601460215158	1.5782283007001938	-0.6769934016516227	-0.1925532856585557	1.5410512659010671	-0.7318927559452466	-0.17902477043333123	1.553295414154505	-0.7458504032598201	-0.18453939641648073	1.5655702921578147	-0.6626983270505776	-0.1847268258422612	1.9876096837791397	-0.7103273792631117	-0.20534594498105394	2.0503991320472954	-0.7255109924210024	-0.21404821004181906	1.9821123107957217	-0.614170676572876	-0.22387211081839084	1.8937033626721658	-0.5615815690040346	-0.22268108518522298	1.9286553328284728	-0.6615048388221227	-0.15005669608807645	1.9916109706648895	-0.8082578296447823	-0.9802673441667376	1.829289500108389	-0.0394972531848051	-1.181213760832838	1.8356497761433463	0.2010382813189623
